<svg width="18" height="18" viewBox="0 0 18 18" fill="none" xmlns="http://www.w3.org/2000/svg">
<path fill-rule="evenodd" clip-rule="evenodd" d="M10.189 1.59961H7.81239H7.81174C7.59677 1.60031 7.39081 1.68602 7.2388 1.83802C7.0868 1.99003 7.00109 2.19599 7.00039 2.41096V3.39961H4.50039H3.60039C3.48993 3.39961 3.40039 3.48915 3.40039 3.59961C3.40039 3.71007 3.48993 3.79961 3.60039 3.79961H4.30039V15.5876L4.30039 15.5883C4.30109 15.8032 4.3868 16.0092 4.5388 16.1612C4.69081 16.3132 4.89677 16.3989 5.11174 16.3996H5.11239H12.8884H12.889C13.104 16.3989 13.31 16.3132 13.462 16.1612C13.614 16.0092 13.6997 15.8032 13.7004 15.5883L13.7004 15.5876V3.79961H14.4004C14.5108 3.79961 14.6004 3.71007 14.6004 3.59961C14.6004 3.48915 14.5108 3.39961 14.4004 3.39961H13.5004H11.0004L11.0004 2.41161L11.0004 2.41096C10.9997 2.19599 10.914 1.99003 10.762 1.83802C10.61 1.68602 10.404 1.60031 10.189 1.59961ZM10.6004 3.39961H7.40039V2.41197C7.40082 2.30274 7.4444 2.1981 7.52165 2.12086C7.59889 2.04362 7.70352 2.00004 7.81275 1.99961H10.188C10.2973 2.00004 10.4019 2.04362 10.4791 2.12086C10.5564 2.1981 10.6 2.30273 10.6004 2.41194V3.39961ZM4.70039 15.5873V3.79961H13.3004L13.3004 15.587L13.3004 15.5872C13.3 15.6964 13.2564 15.8011 13.1791 15.8784C13.1019 15.9556 12.9972 15.9992 12.888 15.9996H12.8877H5.11304H5.11282C5.00357 15.9992 4.8989 15.9556 4.82165 15.8784C4.7444 15.8011 4.70082 15.6965 4.70039 15.5873ZM9.20039 5.39961C9.20039 5.28915 9.11085 5.19961 9.00039 5.19961C8.88993 5.19961 8.80039 5.28915 8.80039 5.39961V14.3996C8.80039 14.5101 8.88993 14.5996 9.00039 14.5996C9.11085 14.5996 9.20039 14.5101 9.20039 14.3996V5.39961ZM6.75039 5.19961C6.86085 5.19961 6.95039 5.28915 6.95039 5.39961V14.3996C6.95039 14.5101 6.86085 14.5996 6.75039 14.5996C6.63993 14.5996 6.55039 14.5101 6.55039 14.3996V5.39961C6.55039 5.28915 6.63993 5.19961 6.75039 5.19961ZM11.4504 5.39961C11.4504 5.28915 11.3608 5.19961 11.2504 5.19961C11.1399 5.19961 11.0504 5.28915 11.0504 5.39961V14.3996C11.0504 14.5101 11.1399 14.5996 11.2504 14.5996C11.3608 14.5996 11.4504 14.5101 11.4504 14.3996V5.39961Z" fill="#B00505"/>
<path fill-rule="evenodd" clip-rule="evenodd" d="M4.50078 3.40039C4.61124 3.40039 4.70078 3.48993 4.70078 3.60039V15.588C4.70121 15.6973 4.7448 15.8019 4.82204 15.8791C4.89929 15.9564 5.00396 16 5.11321 16.0004C5.11329 16.0004 5.11336 16.0004 5.11343 16.0004H12.8881C12.8882 16.0004 12.8883 16.0004 12.8883 16.0004C12.9976 16 13.1023 15.9564 13.1795 15.8791C13.2568 15.8019 13.3004 15.6972 13.3008 15.588C13.3008 15.5879 13.3008 15.5878 13.3008 15.5877V3.60039C13.3008 3.48993 13.3903 3.40039 13.5008 3.40039C13.6112 3.40039 13.7008 3.48993 13.7008 3.60039V15.5884L13.7008 15.589C13.7001 15.804 13.6144 16.01 13.4624 16.162C13.3104 16.314 13.1044 16.3997 12.8894 16.4004H12.8888H5.11278H5.11213C4.89716 16.3997 4.6912 16.314 4.53919 16.162C4.38719 16.01 4.30148 15.804 4.30078 15.589L4.30078 15.5884V3.60039C4.30078 3.48993 4.39032 3.40039 4.50078 3.40039Z" fill="#B00505" stroke="#B00505" stroke-width="0.3" stroke-linecap="round" stroke-linejoin="round"/>
<path fill-rule="evenodd" clip-rule="evenodd" d="M7.812 1.59961H10.1887C10.4036 1.60031 10.6096 1.68602 10.7616 1.83802C10.9136 1.99003 10.9993 2.19599 11 2.41096L11 2.41161L11 3.59961C11 3.71007 10.9105 3.79961 10.8 3.79961C10.6895 3.79961 10.6 3.71007 10.6 3.59961V2.41194C10.5996 2.30273 10.556 2.1981 10.4787 2.12086C10.4015 2.04362 10.2969 2.00004 10.1876 1.99961H7.81236C7.70313 2.00004 7.5985 2.04362 7.52125 2.12086C7.44401 2.1981 7.40043 2.30274 7.4 2.41197V3.59961C7.4 3.71007 7.31046 3.79961 7.2 3.79961C7.08954 3.79961 7 3.71007 7 3.59961V2.41096C7.0007 2.19599 7.08641 1.99003 7.23841 1.83802C7.39042 1.68602 7.59638 1.60031 7.81135 1.59961L7.812 1.59961Z" stroke="#B00505" stroke-width="0.3" stroke-linecap="round" stroke-linejoin="round"/>
<path fill-rule="evenodd" clip-rule="evenodd" d="M3.40039 3.60039C3.40039 3.48993 3.48993 3.40039 3.60039 3.40039H14.4004C14.5108 3.40039 14.6004 3.48993 14.6004 3.60039C14.6004 3.71085 14.5108 3.80039 14.4004 3.80039H3.60039C3.48993 3.80039 3.40039 3.71085 3.40039 3.60039Z" stroke="#B00505" stroke-width="0.3" stroke-linecap="round" stroke-linejoin="round"/>
<path fill-rule="evenodd" clip-rule="evenodd" d="M9.00078 5.2002C9.11124 5.2002 9.20078 5.28974 9.20078 5.4002V14.4002C9.20078 14.5107 9.11124 14.6002 9.00078 14.6002C8.89032 14.6002 8.80078 14.5107 8.80078 14.4002V5.4002C8.80078 5.28974 8.89032 5.2002 9.00078 5.2002Z" stroke="#B00505" stroke-width="0.3" stroke-linecap="round" stroke-linejoin="round"/>
<path fill-rule="evenodd" clip-rule="evenodd" d="M6.75078 5.2002C6.86124 5.2002 6.95078 5.28974 6.95078 5.4002V14.4002C6.95078 14.5107 6.86124 14.6002 6.75078 14.6002C6.64032 14.6002 6.55078 14.5107 6.55078 14.4002V5.4002C6.55078 5.28974 6.64032 5.2002 6.75078 5.2002Z" stroke="#B00505" stroke-width="0.3" stroke-linecap="round" stroke-linejoin="round"/>
<path fill-rule="evenodd" clip-rule="evenodd" d="M11.2508 5.2002C11.3612 5.2002 11.4508 5.28974 11.4508 5.4002V14.4002C11.4508 14.5107 11.3612 14.6002 11.2508 14.6002C11.1403 14.6002 11.0508 14.5107 11.0508 14.4002V5.4002C11.0508 5.28974 11.1403 5.2002 11.2508 5.2002Z" stroke="#B00505" stroke-width="0.3" stroke-linecap="round" stroke-linejoin="round"/>
</svg>
